<svg width="7" height="13" viewBox="0 0 7 13" fill="none" xmlns="http://www.w3.org/2000/svg">
<path d="M0.240319 0.25466C0.31599 0.174014 0.405884 0.11003 0.504853 0.0663729C0.603821 0.0227161 0.70992 0.000244141 0.81707 0.000244141C0.924221 0.000244141 1.03032 0.0227161 1.12929 0.0663729C1.22826 0.11003 1.31815 0.174014 1.39382 0.25466L6.80942 6.01174C6.86983 6.07583 6.91776 6.15196 6.95046 6.23577C6.98317 6.31958 7 6.40942 7 6.50015C7 6.59089 6.98317 6.68073 6.95046 6.76454C6.91776 6.84835 6.86983 6.92448 6.80942 6.98857L1.39382 12.7456C1.07449 13.0851 0.55965 13.0851 0.240319 12.7456C-0.0790124 12.4062 -0.0790124 11.8589 0.240319 11.5194L4.9586 6.49669L0.233803 1.47397C-0.0790114 1.14143 -0.0790124 0.587199 0.240319 0.25466Z" fill="#032868"/>
</svg>
